<svg width="152" height="33" viewBox="0 0 152 33" fill="none" xmlns="http://www.w3.org/2000/svg">
<g clip-path="url(#clip0_401_4408)">
<path d="M31.9993 7.65436V20.4084C31.4224 19.5973 30.7523 19.0093 29.9932 18.6462V8.53789C29.9932 8.39853 29.9049 8.27381 29.7728 8.22503L16.1176 3.23253C16.042 3.20466 15.9587 3.20466 15.8824 3.23253L2.22786 8.22503C2.09511 8.27381 2.00755 8.39853 2.00755 8.53789V30.1454H0V7.65436C0 7.24465 0.243617 6.87256 0.622107 6.70463L15.4058 0.126235C15.7836 -0.0416917 16.2157 -0.0416917 16.5935 0.126235L31.3772 6.70463C31.7557 6.87326 31.9993 7.24465 31.9993 7.65436Z" fill="white"/>
<path d="M28.9938 12.6398C27.8555 12.4517 26.7342 12.214 25.6171 11.9618C24.5014 11.7068 23.3906 11.4364 22.2876 11.1445C21.734 11.0037 21.1861 10.8476 20.6346 10.6999L18.9893 10.2324C18.4434 10.0693 17.8955 9.91185 17.351 9.74462C16.8073 9.576 16.5503 9.50423 16.008 9.33073C14.9283 9.69306 14.119 9.95505 13.0274 10.2832C11.9385 10.6177 10.8404 10.9257 9.73746 11.2197C8.63518 11.5138 7.52302 11.7806 6.40379 12.0245C5.28315 12.2649 4.15686 12.4879 3.00586 12.6398C4.02128 12.0851 5.06001 11.6023 6.10509 11.1361C7.15159 10.6741 8.20514 10.2345 9.26788 9.82266C10.3306 9.41086 11.3983 9.01229 12.4752 8.6409C13.5492 8.26255 14.6324 7.90997 15.7184 7.56645L16.0065 7.47517L16.2812 7.56645C16.8214 7.74553 17.3588 7.93575 17.8976 8.1204C18.4357 8.30645 18.9709 8.50224 19.5076 8.69247L21.1105 9.28474C21.6422 9.4896 22.1768 9.68748 22.7064 9.89931C23.7684 10.3132 24.8241 10.7487 25.8734 11.2002C26.9227 11.6538 27.9664 12.1221 28.9938 12.6405V12.6398Z" fill="#FFA90A"/>
<path d="M15.9995 11.4573C16.2926 11.982 16.438 12.506 16.5496 13.0307C16.6541 13.5554 16.6993 14.0794 16.7007 14.604C16.7007 15.1287 16.6562 15.6527 16.5517 16.1774C16.4409 16.7021 16.2947 17.2261 15.9995 17.7507C15.7044 17.2261 15.5582 16.7021 15.4473 16.1774C15.3428 15.6527 15.2983 15.1287 15.2983 14.604C15.2998 14.0794 15.3442 13.5554 15.4495 13.0307C15.5603 12.506 15.7065 11.982 15.9995 11.4573Z" fill="#FFA90A"/>
<path d="M31.935 22.553C31.851 22.1538 31.6851 21.7761 31.4746 21.4256C30.5785 19.9345 29.4268 19.1945 27.9962 19.1945H23.3964C23.2425 19.1945 23.0886 19.2042 22.9353 19.2231C22.6705 19.2558 22.4078 19.3143 22.1572 19.4035C20.1305 20.1275 19.1172 21.4681 19.1172 23.4365V26.1192H17.3004L17.3152 21.9496V21.8186C17.3152 20.6522 16.5766 19.7777 15.0993 19.1945V26.1192H14.509C13.4011 26.0607 12.7507 25.2886 12.5586 23.8302V21.4765C12.5586 20.5964 12.1533 19.7443 11.4564 19.1945L11.4557 19.1952C10.7785 19.7477 10.3873 20.57 10.3873 21.4368L10.3724 23.9619C10.3724 25.3179 9.58934 26.0321 8.03795 26.1053V26.1199H7.62486V19.2537C6.26555 19.7345 5.58625 20.5072 5.58625 21.5573L5.57142 29.1384C5.57142 30.4651 4.6259 31.1354 2.73487 31.1354H0C0.797935 32.3457 1.74345 32.9721 2.85138 33.0014H3.75241C5.19081 33.0014 6.33405 32.2607 7.17152 30.7696C7.39466 30.3717 7.51541 29.9251 7.54366 29.4715L7.62275 28.1908H8.56756C8.9517 28.1469 9.32101 28.0598 9.67549 27.9281C10.1924 27.68 10.8131 27.2577 11.5072 26.6745C12.3842 27.5399 13.2718 28.0681 14.1517 28.1908H27.9948C28.3789 28.1761 28.7927 28.0744 29.2355 27.9141C31.082 26.9958 31.9979 25.7708 31.9979 24.2114V23.1327C31.9979 22.9509 31.976 22.7572 31.9329 22.5551L31.935 22.553ZM29.9317 23.9905C29.9317 25.4043 29.3259 26.1192 28.129 26.1192H21.2738V23.3056C21.5252 21.9789 22.1748 21.3086 23.1945 21.3086H27.9962C28.8146 21.3086 29.3929 21.7287 29.7227 22.5621C29.8689 22.9321 29.9317 23.3285 29.9317 23.7257V23.9912V23.9905Z" fill="white"/>
<path d="M11.4471 30.001C12.0142 30.001 12.4739 29.5474 12.4739 28.9879C12.4739 28.4283 12.0142 27.9747 11.4471 27.9747C10.8801 27.9747 10.4204 28.4283 10.4204 28.9879C10.4204 29.5474 10.8801 30.001 11.4471 30.001Z" fill="#FFA90A"/>
</g>
<path d="M41.1035 20.6046L44.4785 20.2765C44.6816 21.4093 45.0918 22.2413 45.709 22.7726C46.334 23.3038 47.1738 23.5695 48.2285 23.5695C49.3457 23.5695 50.1855 23.3351 50.748 22.8663C51.3184 22.3898 51.6035 21.8351 51.6035 21.2023C51.6035 20.796 51.4824 20.4523 51.2402 20.171C51.0059 19.882 50.5918 19.632 49.998 19.421C49.5918 19.2804 48.666 19.0304 47.2207 18.671C45.3613 18.2101 44.0566 17.6437 43.3066 16.9718C42.252 16.0265 41.7246 14.8741 41.7246 13.5148C41.7246 12.6398 41.9707 11.8234 42.4629 11.0656C42.9629 10.2999 43.6777 9.7179 44.6074 9.31946C45.5449 8.92102 46.6738 8.7218 47.9941 8.7218C50.1504 8.7218 51.7715 9.19446 52.8574 10.1398C53.9512 11.0851 54.5254 12.3468 54.5801 13.9249L51.1113 14.0773C50.9629 13.1945 50.6426 12.5616 50.1504 12.1788C49.666 11.7882 48.9355 11.5929 47.959 11.5929C46.9512 11.5929 46.1621 11.7999 45.5918 12.214C45.2246 12.4796 45.041 12.8351 45.041 13.2804C45.041 13.6866 45.2129 14.0343 45.5566 14.3234C45.9941 14.6906 47.0566 15.0734 48.7441 15.4718C50.4316 15.8702 51.6777 16.2843 52.4824 16.714C53.2949 17.1359 53.9277 17.7179 54.3809 18.4601C54.8418 19.1945 55.0723 20.1046 55.0723 21.1906C55.0723 22.1749 54.7988 23.0968 54.252 23.9562C53.7051 24.8156 52.9316 25.4562 51.9316 25.8781C50.9316 26.2921 49.6855 26.4991 48.1934 26.4991C46.0215 26.4991 44.3535 25.9991 43.1895 24.9991C42.0254 23.9913 41.3301 22.5265 41.1035 20.6046Z" fill="white"/>
<path d="M60.4277 17.546L57.4395 17.007C57.7754 15.8038 58.3535 14.9132 59.1738 14.3351C59.9941 13.757 61.2129 13.4679 62.8301 13.4679C64.2988 13.4679 65.3926 13.6437 66.1113 13.9952C66.8301 14.339 67.334 14.7804 67.623 15.3195C67.9199 15.8507 68.0684 16.8312 68.0684 18.2609L68.0332 22.1046C68.0332 23.1984 68.084 24.007 68.1855 24.5304C68.2949 25.046 68.4941 25.6007 68.7832 26.1945H65.5254C65.4395 25.9757 65.334 25.6515 65.209 25.2218C65.1543 25.0265 65.1152 24.8976 65.0918 24.8351C64.5293 25.382 63.9277 25.7921 63.2871 26.0656C62.6465 26.339 61.9629 26.4757 61.2363 26.4757C59.9551 26.4757 58.9434 26.1281 58.2012 25.4327C57.4668 24.7374 57.0996 23.8585 57.0996 22.796C57.0996 22.0929 57.2676 21.4679 57.6035 20.921C57.9395 20.3663 58.4082 19.9445 59.0098 19.6554C59.6191 19.3585 60.4941 19.1007 61.6348 18.882C63.1738 18.5929 64.2402 18.3234 64.834 18.0734V17.7452C64.834 17.1124 64.6777 16.6632 64.3652 16.3976C64.0527 16.1241 63.4629 15.9874 62.5957 15.9874C62.0098 15.9874 61.5527 16.1046 61.2246 16.339C60.8965 16.5656 60.6309 16.9679 60.4277 17.546ZM64.834 20.2179C64.4121 20.3585 63.7441 20.5265 62.8301 20.7218C61.916 20.9171 61.3184 21.1085 61.0371 21.296C60.6074 21.6007 60.3926 21.9874 60.3926 22.4562C60.3926 22.9171 60.5645 23.3156 60.9082 23.6515C61.252 23.9874 61.6895 24.1554 62.2207 24.1554C62.8145 24.1554 63.3809 23.9601 63.9199 23.5695C64.3184 23.2726 64.5801 22.9093 64.7051 22.4796C64.791 22.1984 64.834 21.6632 64.834 20.8741V20.2179Z" fill="white"/>
<path d="M71.1855 26.1945V9.01477H74.4785V15.2023C75.4941 14.046 76.6973 13.4679 78.0879 13.4679C79.6035 13.4679 80.8574 14.0187 81.8496 15.1202C82.8418 16.214 83.3379 17.7882 83.3379 19.8429C83.3379 21.9679 82.8301 23.6046 81.8145 24.7531C80.8066 25.9015 79.5801 26.4757 78.1348 26.4757C77.4238 26.4757 76.7207 26.2999 76.0254 25.9484C75.3379 25.589 74.7441 25.0616 74.2441 24.3663V26.1945H71.1855ZM74.4551 19.7023C74.4551 20.9913 74.6582 21.9445 75.0645 22.5616C75.6348 23.4366 76.3926 23.8741 77.3379 23.8741C78.0645 23.8741 78.6816 23.5656 79.1895 22.9484C79.7051 22.3234 79.9629 21.3429 79.9629 20.007C79.9629 18.5851 79.7051 17.5616 79.1895 16.9366C78.6738 16.3038 78.0137 15.9874 77.209 15.9874C76.4199 15.9874 75.7637 16.296 75.2402 16.9132C74.7168 17.5226 74.4551 18.4523 74.4551 19.7023Z" fill="white"/>
<path d="M89.1504 26.1945H85.8574V13.7491H88.916V15.5187C89.4395 14.6827 89.9082 14.132 90.3223 13.8663C90.7441 13.6007 91.2207 13.4679 91.752 13.4679C92.502 13.4679 93.2246 13.6749 93.9199 14.089L92.9004 16.9601C92.3457 16.6007 91.8301 16.421 91.3535 16.421C90.8926 16.421 90.502 16.5499 90.1816 16.8077C89.8613 17.0577 89.6074 17.5148 89.4199 18.1788C89.2402 18.8429 89.1504 20.2335 89.1504 22.3507V26.1945Z" fill="white"/>
<path d="M102.053 26.1945V9.01477H107.619C109.729 9.01477 111.104 9.10071 111.744 9.27258C112.729 9.5304 113.553 10.0929 114.217 10.9601C114.881 11.8195 115.213 12.9327 115.213 14.2999C115.213 15.3546 115.021 16.2413 114.639 16.9601C114.256 17.6788 113.768 18.2452 113.174 18.6593C112.588 19.0656 111.99 19.3351 111.381 19.4679C110.553 19.632 109.354 19.714 107.783 19.714H105.521V26.1945H102.053ZM105.521 11.921V16.796H107.42C108.787 16.796 109.701 16.7062 110.162 16.5265C110.623 16.3468 110.982 16.0656 111.24 15.6827C111.506 15.2999 111.639 14.8546 111.639 14.3468C111.639 13.7218 111.455 13.2062 111.088 12.7999C110.721 12.3937 110.256 12.1398 109.693 12.0382C109.279 11.9601 108.447 11.921 107.197 11.921H105.521Z" fill="#FFA90A"/>
<path d="M118.014 26.1945V9.01477H123.205L126.322 20.7335L129.404 9.01477H134.607V26.1945H131.385V12.671L127.975 26.1945H124.635L121.236 12.671V26.1945H118.014Z" fill="#FFA90A"/>
<path d="M137.174 20.6046L140.549 20.2765C140.752 21.4093 141.162 22.2413 141.779 22.7726C142.404 23.3038 143.244 23.5695 144.299 23.5695C145.416 23.5695 146.256 23.3351 146.818 22.8663C147.389 22.3898 147.674 21.8351 147.674 21.2023C147.674 20.796 147.553 20.4523 147.311 20.171C147.076 19.882 146.662 19.632 146.068 19.421C145.662 19.2804 144.736 19.0304 143.291 18.671C141.432 18.2101 140.127 17.6437 139.377 16.9718C138.322 16.0265 137.795 14.8741 137.795 13.5148C137.795 12.6398 138.041 11.8234 138.533 11.0656C139.033 10.2999 139.748 9.7179 140.678 9.31946C141.615 8.92102 142.744 8.7218 144.064 8.7218C146.221 8.7218 147.842 9.19446 148.928 10.1398C150.021 11.0851 150.596 12.3468 150.65 13.9249L147.182 14.0773C147.033 13.1945 146.713 12.5616 146.221 12.1788C145.736 11.7882 145.006 11.5929 144.029 11.5929C143.021 11.5929 142.232 11.7999 141.662 12.214C141.295 12.4796 141.111 12.8351 141.111 13.2804C141.111 13.6866 141.283 14.0343 141.627 14.3234C142.064 14.6906 143.127 15.0734 144.814 15.4718C146.502 15.8702 147.748 16.2843 148.553 16.714C149.365 17.1359 149.998 17.7179 150.451 18.4601C150.912 19.1945 151.143 20.1046 151.143 21.1906C151.143 22.1749 150.869 23.0968 150.322 23.9562C149.775 24.8156 149.002 25.4562 148.002 25.8781C147.002 26.2921 145.756 26.4991 144.264 26.4991C142.092 26.4991 140.424 25.9991 139.26 24.9991C138.096 23.9913 137.4 22.5265 137.174 20.6046Z" fill="#FFA90A"/>
<defs>
<clipPath id="clip0_401_4408">
<rect width="32" height="33" fill="white"/>
</clipPath>
</defs>
</svg>
