<svg width="156" height="50" viewBox="0 0 156 50" fill="none" xmlns="http://www.w3.org/2000/svg">
<g clip-path="url(#clip0_398_3716)">
<path d="M45.4449 11.3845V30.3539C44.6255 29.1476 43.6738 28.2729 42.5958 27.7329V12.6986C42.5958 12.4914 42.4704 12.3058 42.2829 12.2333L22.8899 4.80786C22.7826 4.7664 22.6643 4.7664 22.556 4.80786L3.16397 12.2333C2.97544 12.3058 2.85108 12.4914 2.85108 12.6986V44.8358H0V11.3845C0 10.7752 0.345981 10.2217 0.883505 9.97199L21.879 0.187808C22.4156 -0.0619518 23.0293 -0.0619518 23.5658 0.187808L44.5613 9.97199C45.0989 10.2228 45.4449 10.7752 45.4449 11.3845Z" fill="white"/>
<path d="M41.1767 18.7996C39.5601 18.5198 37.9676 18.1664 36.3811 17.7912C34.7966 17.4119 33.2192 17.0098 31.6527 16.5756C30.8665 16.3662 30.0883 16.1341 29.3051 15.9144L26.9684 15.219C26.1932 14.9765 25.415 14.7423 24.6418 14.4936C23.8697 14.2428 23.5046 14.136 22.7344 13.878C21.2011 14.4169 20.0518 14.8065 18.5014 15.2947C16.9551 15.7921 15.3956 16.2502 13.8292 16.6875C12.2638 17.1248 10.6843 17.5218 9.09477 17.8845C7.50326 18.242 5.90372 18.5737 4.26909 18.7996C5.71118 17.9747 7.18636 17.2565 8.67057 16.5631C10.1568 15.876 11.653 15.2221 13.1623 14.6096C14.6716 13.9971 16.1879 13.4044 17.7172 12.852C19.2425 12.2892 20.7809 11.7648 22.3233 11.2539L22.7324 11.1182L23.1225 11.2539C23.8897 11.5203 24.6529 11.8032 25.4181 12.0778C26.1822 12.3545 26.9424 12.6457 27.7045 12.9287L29.981 13.8096C30.7361 14.1143 31.4953 14.4086 32.2474 14.7236C33.7557 15.3392 35.2549 15.9869 36.7452 16.6585C38.2354 17.3332 39.7176 18.0296 41.1767 18.8006V18.7996Z" fill="#FFA90A"/>
<path d="M22.7224 17.041C23.1386 17.8214 23.3452 18.6007 23.5036 19.3811C23.6521 20.1615 23.7162 20.9408 23.7182 21.7212C23.7182 22.5015 23.6551 23.2809 23.5066 24.0612C23.3492 24.8416 23.1416 25.621 22.7224 26.4013C22.3032 25.621 22.0956 24.8416 21.9382 24.0612C21.7898 23.2809 21.7266 22.5015 21.7266 21.7212C21.7286 20.9408 21.7918 20.1615 21.9412 19.3811C22.0986 18.6007 22.3062 17.8214 22.7224 17.041Z" fill="#FFA90A"/>
<path d="M45.3536 33.5435C45.2343 32.9497 44.9986 32.388 44.6997 31.8667C43.4271 29.6489 41.7915 28.5483 39.7597 28.5483H33.2272C33.0086 28.5483 32.79 28.5628 32.5724 28.5908C32.1963 28.6395 31.8232 28.7266 31.4672 28.8592C28.5891 29.936 27.15 31.9299 27.15 34.8576V38.8476H24.5697L24.5907 32.6461V32.4512C24.5907 30.7164 23.5418 29.4158 21.4438 28.5483V38.8476H20.6054C19.032 38.7605 18.1083 37.6123 17.8356 35.4432V31.9424C17.8356 30.6335 17.2599 29.366 16.2701 28.5483L16.2691 28.5494C15.3074 29.3712 14.7518 30.5941 14.7518 31.8833L14.7308 35.639C14.7308 37.6558 13.6186 38.718 11.4154 38.8269V38.8486H10.8287V28.6364C8.89823 29.3515 7.93349 30.5008 7.93349 32.0626L7.91244 43.3381C7.91244 45.3113 6.56963 46.3083 3.88401 46.3083H0C1.13321 48.1084 2.47602 49.0401 4.04948 49.0836H5.32911C7.3719 49.0836 8.99551 47.982 10.1849 45.7642C10.5018 45.1724 10.6733 44.5081 10.7134 43.8335L10.8257 41.9287H12.1675C12.713 41.8634 13.2375 41.7338 13.741 41.5379C14.475 41.169 15.3565 40.541 16.3423 39.6736C17.5879 40.9607 18.8484 41.7463 20.098 41.9287H39.7577C40.3033 41.9069 40.8909 41.7556 41.5197 41.5172C44.1422 40.1513 45.4428 38.3294 45.4428 36.0101V34.4058C45.4428 34.1353 45.4118 33.8472 45.3506 33.5467L45.3536 33.5435ZM42.5085 35.6815C42.5085 37.7843 41.6481 38.8476 39.9483 38.8476H30.2127V34.6628C30.5697 32.6896 31.4923 31.6926 32.9404 31.6926H39.7597C40.922 31.6926 41.7434 32.3175 42.2117 33.557C42.4193 34.1073 42.5085 34.697 42.5085 35.2877V35.6826V35.6815Z" fill="white"/>
<path d="M16.2571 44.6211C17.0624 44.6211 17.7152 43.9465 17.7152 43.1143C17.7152 42.2821 17.0624 41.6074 16.2571 41.6074C15.4518 41.6074 14.799 42.2821 14.799 43.1143C14.799 43.9465 15.4518 44.6211 16.2571 44.6211Z" fill="#FFA90A"/>
</g>
<path d="M59.9885 29.9833L66.1237 29.3868C66.493 31.4461 67.2386 32.9586 68.3605 33.9243C69.4967 34.89 71.0233 35.3729 72.9406 35.3729C74.9715 35.3729 76.4982 34.9468 77.5207 34.0947C78.5574 33.2284 79.0758 32.2201 79.0758 31.0697C79.0758 30.3313 78.8557 29.7064 78.4154 29.1951C77.9893 28.6696 77.2366 28.2152 76.1573 27.8317C75.4188 27.5761 73.7359 27.1216 71.1086 26.4684C67.7285 25.6304 65.3568 24.6008 63.9934 23.3795C62.0762 21.661 61.1176 19.5663 61.1176 17.0951C61.1176 15.5045 61.5649 14.0205 62.4596 12.6429C63.3686 11.2511 64.668 10.1931 66.358 9.46876C68.0623 8.74447 70.1144 8.38232 72.5145 8.38232C76.4342 8.38232 79.3811 9.24153 81.3552 10.96C83.3434 12.6784 84.3873 14.972 84.4867 17.8407L78.1811 18.1177C77.9112 16.5129 77.329 15.3625 76.4342 14.6666C75.5537 13.9565 74.2259 13.6015 72.4506 13.6015C70.6186 13.6015 69.1842 13.9778 68.1475 14.7305C67.48 15.2134 67.1462 15.8596 67.1462 16.6691C67.1462 17.4076 67.4587 18.0396 68.0836 18.565C68.8789 19.2325 70.8103 19.9284 73.8779 20.6527C76.9455 21.377 79.2107 22.1297 80.6735 22.9108C82.1505 23.6777 83.3008 24.7357 84.1245 26.0849C84.9624 27.4199 85.3814 29.0744 85.3814 31.0484C85.3814 32.8379 84.8843 34.5137 83.8902 36.0759C82.8961 37.6381 81.4901 38.8026 79.6723 39.5695C77.8544 40.3222 75.5892 40.6986 72.8767 40.6986C68.9286 40.6986 65.8965 39.7897 63.7804 37.9718C61.6643 36.1398 60.4004 33.477 59.9885 29.9833Z" fill="white"/>
<path d="M95.1167 24.4233L89.6846 23.4434C90.2952 21.2563 91.3462 19.6373 92.8374 18.5863C94.3285 17.5354 96.544 17.0099 99.4838 17.0099C102.154 17.0099 104.142 17.3295 105.449 17.9686C106.755 18.5934 107.671 19.3958 108.197 20.3758C108.736 21.3415 109.006 23.1238 109.006 25.7228L108.942 32.7101C108.942 34.6983 109.035 36.1682 109.219 37.1197C109.418 38.057 109.78 39.0654 110.306 40.1447H104.383C104.227 39.7471 104.035 39.1577 103.808 38.3766C103.709 38.0215 103.638 37.7872 103.595 37.6736C102.573 38.6677 101.479 39.4133 100.315 39.9104C99.1501 40.4075 97.9074 40.656 96.5866 40.656C94.2575 40.656 92.4184 40.024 91.0692 38.76C89.7343 37.4961 89.0668 35.8984 89.0668 33.9669C89.0668 32.6888 89.3721 31.5526 89.9828 30.5585C90.5935 29.5502 91.4456 28.7833 92.5391 28.2578C93.6469 27.7181 95.2375 27.2495 97.3109 26.8518C100.109 26.3263 102.047 25.8364 103.127 25.3819V24.7854C103.127 23.6351 102.843 22.8185 102.274 22.3356C101.706 21.8386 100.634 21.59 99.0578 21.59C97.9926 21.59 97.1618 21.8031 96.5653 22.2291C95.9689 22.641 95.486 23.3724 95.1167 24.4233ZM103.127 29.2803C102.36 29.536 101.145 29.8413 99.4838 30.1963C97.8222 30.5514 96.7358 30.8993 96.2245 31.2402C95.4434 31.794 95.0528 32.497 95.0528 33.3491C95.0528 34.187 95.3653 34.9113 95.9902 35.522C96.615 36.1327 97.4103 36.438 98.3761 36.438C99.4554 36.438 100.485 36.083 101.465 35.3729C102.189 34.8332 102.665 34.1728 102.892 33.3917C103.048 32.8805 103.127 31.9077 103.127 30.4733V29.2803Z" fill="white"/>
<path d="M114.673 40.1447V8.91489H120.659V20.1627C122.505 18.0609 124.692 17.0099 127.22 17.0099C129.975 17.0099 132.255 18.0112 134.058 20.0136C135.862 22.0019 136.764 24.8635 136.764 28.5986C136.764 32.4615 135.84 35.4368 133.994 37.5245C132.162 39.6121 129.933 40.656 127.305 40.656C126.013 40.656 124.735 40.3364 123.471 39.6974C122.221 39.0441 121.142 38.0855 120.233 36.8215V40.1447H114.673ZM120.616 28.343C120.616 30.6863 120.985 32.4189 121.724 33.5409C122.761 35.1315 124.138 35.9268 125.857 35.9268C127.177 35.9268 128.299 35.3658 129.222 34.2439C130.16 33.1077 130.628 31.3254 130.628 28.8969C130.628 26.3121 130.16 24.4517 129.222 23.3155C128.285 22.1652 127.085 21.59 125.622 21.59C124.188 21.59 122.995 22.151 122.043 23.2729C121.092 24.3807 120.616 26.0707 120.616 28.343Z" fill="white"/>
<path d="M147.33 40.1447H141.344V17.5212H146.904V20.7379C147.855 19.2183 148.707 18.2171 149.46 17.7342C150.227 17.2514 151.093 17.0099 152.059 17.0099C153.422 17.0099 154.736 17.3863 156 18.139L154.147 23.3582C153.138 22.7049 152.201 22.3782 151.335 22.3782C150.497 22.3782 149.787 22.6126 149.204 23.0812C148.622 23.5357 148.161 24.3665 147.82 25.5736C147.493 26.7808 147.33 29.3087 147.33 33.1574V40.1447Z" fill="white"/>
<defs>
<clipPath id="clip0_398_3716">
<rect width="45.4459" height="49.0815" fill="white"/>
</clipPath>
</defs>
</svg>
