<svg width="32" height="33" viewBox="0 0 32 33" fill="none" xmlns="http://www.w3.org/2000/svg">
<path d="M31.9993 7.65407V20.4081C31.4224 19.5971 30.7523 19.009 29.9932 18.6459V8.5376C29.9932 8.39824 29.9049 8.27352 29.7728 8.22474L16.1176 3.23224C16.042 3.20437 15.9587 3.20437 15.8824 3.23224L2.22786 8.22474C2.09511 8.27352 2.00755 8.39824 2.00755 8.5376V30.1451H0V7.65407C0 7.24436 0.243617 6.87227 0.622107 6.70434L15.4058 0.125945C15.7836 -0.0419816 16.2157 -0.0419816 16.5935 0.125945L31.3772 6.70434C31.7557 6.87297 31.9993 7.24436 31.9993 7.65407Z" fill="#100E0E"/>
<path d="M28.9938 12.6395C27.8555 12.4514 26.7342 12.2138 25.6171 11.9615C24.5014 11.7065 23.3906 11.4361 22.2876 11.1442C21.734 11.0034 21.1861 10.8474 20.6346 10.6996L18.9893 10.2321C18.4434 10.069 17.8955 9.91156 17.351 9.74433C16.8073 9.57571 16.5503 9.50394 16.008 9.33044C14.9283 9.69277 14.119 9.95476 13.0274 10.283C11.9385 10.6174 10.8404 10.9254 9.73746 11.2194C8.63518 11.5135 7.52302 11.7804 6.40379 12.0242C5.28315 12.2646 4.15686 12.4876 3.00586 12.6395C4.02128 12.0848 5.06001 11.602 6.10509 11.1358C7.15159 10.6738 8.20514 10.2342 9.26788 9.82237C10.3306 9.41057 11.3983 9.012 12.4752 8.64061C13.5492 8.26226 14.6324 7.90968 15.7184 7.56616L16.0065 7.47488L16.2812 7.56616C16.8214 7.74524 17.3588 7.93546 17.8976 8.12011C18.4357 8.30616 18.9709 8.50195 19.5076 8.69218L21.1105 9.28445C21.6422 9.48931 22.1768 9.68719 22.7064 9.89902C23.7684 10.3129 24.8241 10.7484 25.8734 11.1999C26.9227 11.6535 27.9664 12.1218 28.9938 12.6402V12.6395Z" fill="#FFA90A"/>
<path d="M15.9995 11.457C16.2926 11.9817 16.438 12.5057 16.5496 13.0304C16.6541 13.5551 16.6993 14.0791 16.7007 14.6037C16.7007 15.1284 16.6562 15.6524 16.5517 16.1771C16.4409 16.7018 16.2947 17.2258 15.9995 17.7505C15.7044 17.2258 15.5582 16.7018 15.4473 16.1771C15.3428 15.6524 15.2983 15.1284 15.2983 14.6037C15.2998 14.0791 15.3442 13.5551 15.4495 13.0304C15.5603 12.5057 15.7065 11.9817 15.9995 11.457Z" fill="#FFA90A"/>
<path d="M31.935 22.5527C31.851 22.1535 31.6851 21.7758 31.4746 21.4253C30.5785 19.9342 29.4268 19.1942 27.9962 19.1942H23.3964C23.2425 19.1942 23.0886 19.204 22.9353 19.2228C22.6705 19.2555 22.4078 19.3141 22.1572 19.4032C20.1305 20.1272 19.1172 21.4678 19.1172 23.4363V26.1189H17.3004L17.3152 21.9493V21.8183C17.3152 20.6519 16.5766 19.7774 15.0993 19.1942V26.1189H14.509C13.4011 26.0604 12.7507 25.2883 12.5586 23.83V21.4762C12.5586 20.5961 12.1533 19.744 11.4564 19.1942L11.4557 19.1949C10.7785 19.7475 10.3873 20.5697 10.3873 21.4365L10.3724 23.9616C10.3724 25.3176 9.58934 26.0318 8.03795 26.105V26.1196H7.62486V19.2534C6.26555 19.7342 5.58625 20.507 5.58625 21.557L5.57142 29.1381C5.57142 30.4648 4.6259 31.1351 2.73487 31.1351H0C0.797935 32.3454 1.74345 32.9718 2.85138 33.0011H3.75241C5.19081 33.0011 6.33405 32.2604 7.17152 30.7693C7.39466 30.3714 7.51541 29.9248 7.54366 29.4712L7.62275 28.1905H8.56756C8.9517 28.1466 9.32101 28.0595 9.67549 27.9278C10.1924 27.6797 10.8131 27.2575 11.5072 26.6743C12.3842 27.5397 13.2718 28.0678 14.1517 28.1905H27.9948C28.3789 28.1758 28.7927 28.0741 29.2355 27.9138C31.082 26.9955 31.9979 25.7705 31.9979 24.2111V23.1325C31.9979 22.9506 31.976 22.7569 31.9329 22.5548L31.935 22.5527ZM29.9317 23.9902C29.9317 25.404 29.3259 26.1189 28.129 26.1189H21.2738V23.3053C21.5252 21.9786 22.1748 21.3083 23.1945 21.3083H27.9962C28.8146 21.3083 29.3929 21.7284 29.7227 22.5618C29.8689 22.9318 29.9317 23.3283 29.9317 23.7254V23.9909V23.9902Z" fill="#100E0E"/>
<path d="M11.4471 30.0007C12.0142 30.0007 12.4739 29.5471 12.4739 28.9876C12.4739 28.4281 12.0142 27.9745 11.4471 27.9745C10.8801 27.9745 10.4204 28.4281 10.4204 28.9876C10.4204 29.5471 10.8801 30.0007 11.4471 30.0007Z" fill="#FFA90A"/>
</svg>
